<?xml version="1.0" standalone="no"?>
<!DOCTYPE svg PUBLIC "-//W3C//DTD SVG 20010904//EN"
 "http://www.w3.org/TR/2001/REC-SVG-20010904/DTD/svg10.dtd">
<svg version="1.0" xmlns="http://www.w3.org/2000/svg"
 width="328.000000pt" height="326.000000pt" viewBox="0 0 328.000000 326.000000"
 preserveAspectRatio="xMidYMid meet">

<g transform="translate(0.000000,326.000000) scale(0.100000,-0.100000)"
fill="#000000" stroke="none">
<path d="M1555 2961 c25 -5 31 -11 33 -40 3 -33 -9 -51 -35 -51 -7 0 -13 18
-16 43 l-4 42 -1 -47 c-2 -38 1 -48 14 -48 33 0 54 20 54 53 0 40 -16 57 -49
56 -24 -1 -24 -2 4 -8z"/>
<path d="M1700 2915 l0 -55 33 1 c29 2 30 2 5 6 -25 4 -27 8 -26 48 0 39 3 44
27 48 23 3 22 4 -6 6 l-33 1 0 -55z"/>
<path d="M1275 2920 c-16 -7 -17 -9 -3 -9 9 -1 20 4 23 9 7 11 7 11 -20 0z"/>
<path d="M1970 2921 c0 -5 9 -7 20 -4 25 7 37 -21 19 -45 -13 -15 -12 -16 4
-3 21 17 22 47 1 55 -23 9 -44 7 -44 -3z"/>
<path d="M1268 2865 c2 -16 8 -37 13 -45 6 -10 7 -6 3 13 -7 32 9 36 40 10 21
-18 21 -18 3 4 -11 12 -16 27 -12 35 6 10 5 11 -6 1 -7 -7 -19 -13 -25 -13 -7
0 -14 6 -17 13 -2 6 -2 -1 1 -18z"/>
<path d="M1960 2885 c0 -8 4 -15 10 -15 5 0 7 7 4 15 -4 8 -8 15 -10 15 -2 0
-4 -7 -4 -15z"/>
<path d="M2126 2865 c-9 -26 -7 -32 5 -12 6 10 9 21 6 23 -2 3 -7 -2 -11 -11z"/>
<path d="M1102 2858 c-28 -28 -6 -98 31 -98 48 0 63 54 27 90 -23 23 -41 25
-58 8z m52 -17 c35 -39 -1 -93 -39 -61 -15 13 -20 61 -8 73 12 12 29 7 47 -12z"/>
<path d="M2105 2810 c-7 -23 1 -40 18 -40 8 0 8 3 -2 9 -8 5 -11 16 -6 30 3
11 4 21 1 21 -2 0 -7 -9 -11 -20z"/>
<path d="M2289 2793 c-1 -5 0 -19 1 -32 1 -16 -2 -21 -11 -16 -8 5 -10 4 -5
-4 12 -18 28 -1 23 25 -2 13 1 25 7 28 7 3 7 5 -1 5 -7 1 -13 -2 -14 -6z"/>
<path d="M937 2769 c-17 -10 -17 -12 4 -47 32 -53 34 -55 58 -40 13 8 21 22
20 38 -1 21 -2 22 -6 5 -6 -22 -22 -45 -32 -45 -3 0 -16 18 -29 40 l-22 40 25
6 c15 4 32 1 43 -7 15 -13 16 -12 3 4 -15 19 -37 21 -64 6z"/>
<path d="M2239 2754 c-23 -25 -23 -26 -2 -13 13 7 25 19 27 26 8 19 2 16 -25
-13z"/>
<path d="M2402 2710 c0 -14 2 -19 5 -12 2 6 2 18 0 25 -3 6 -5 1 -5 -13z"/>
<path d="M2281 2704 c0 -11 3 -14 6 -6 3 7 2 16 -1 19 -3 4 -6 -2 -5 -13z"/>
<path d="M2418 2684 c-15 -8 -32 -24 -38 -37 l-11 -22 18 21 c10 12 32 29 48
37 17 9 26 16 20 16 -5 0 -22 -6 -37 -15z"/>
<path d="M814 2658 c2 -13 6 -34 10 -46 l8 -24 15 22 c10 15 21 19 36 14 22
-6 22 -6 2 9 -11 7 -32 22 -47 31 -26 17 -26 17 -24 -6z m37 -31 c-9 -9 -14
-8 -21 3 -16 24 -11 31 11 19 16 -8 18 -14 10 -22z"/>
<path d="M2500 2595 l-34 -35 24 -23 24 -22 -19 23 c-18 22 -18 23 15 57 19
19 32 35 29 35 -3 0 -20 -16 -39 -35z"/>
<path d="M685 2559 c-19 -20 -19 -21 18 -54 20 -19 37 -30 37 -25 0 5 -4 12
-10 15 -14 9 -13 23 3 28 6 2 3 3 -8 1 -11 -2 -27 1 -35 6 -13 8 -13 12 3 27
18 17 19 17 34 -2 14 -18 15 -18 9 -2 -3 10 -6 21 -6 23 0 12 -29 1 -45 -17z"/>
<path d="M2605 2488 l-40 -43 43 40 c39 36 47 45 39 45 -2 0 -21 -19 -42 -42z"/>
<path d="M768 2513 c7 -3 16 -2 19 1 4 3 -2 6 -13 5 -11 0 -14 -3 -6 -6z"/>
<path d="M583 2448 c-23 -30 -21 -37 18 -67 45 -32 53 -32 70 2 10 21 10 21
-8 -1 -18 -22 -19 -23 -36 -4 -13 15 -14 21 -4 32 10 12 9 12 -6 0 -26 -19
-47 2 -29 30 13 22 10 27 -5 8z"/>
<path d="M2695 2420 c-4 -6 -5 -23 -3 -37 4 -36 -28 -45 -41 -11 -6 13 -10 18
-10 11 -2 -26 12 -43 35 -43 25 0 27 6 24 53 -2 31 23 38 39 10 6 -10 11 -13
11 -7 0 26 -42 45 -55 24z"/>
<path d="M492 2308 c-19 -19 -14 -55 10 -72 28 -20 64 -20 72 -1 4 12 2 13
-14 3 -43 -27 -94 34 -58 70 7 7 10 12 7 12 -3 0 -10 -5 -17 -12z"/>
<path d="M2803 2296 c1 -13 -11 -27 -38 -43 -51 -29 -34 -29 23 0 39 21 41 24
28 42 -14 20 -14 20 -13 1z"/>
<path d="M546 2292 c-2 -4 7 -13 21 -19 25 -12 25 -12 8 7 -20 22 -22 23 -29
12z"/>
<path d="M2420 1965 c0 -20 5 -25 27 -25 l27 0 -27 -28 c-23 -24 -27 -37 -27
-85 0 -57 0 -57 30 -57 l30 0 0 110 0 110 -30 0 c-25 0 -30 -4 -30 -25z"/>
<path d="M1870 1934 l0 -47 -24 22 c-17 16 -33 22 -57 19 -34 -3 -34 -3 -37
-60 -4 -81 14 -98 108 -98 l71 0 -3 103 -3 102 -27 3 c-27 3 -28 2 -28 -44z
m0 -89 c0 -21 -5 -25 -30 -25 -25 0 -30 4 -30 25 0 21 5 25 30 25 25 0 30 -4
30 -25z"/>
<path d="M650 1850 l0 -80 30 0 c29 0 30 1 30 50 0 43 3 50 20 50 17 0 20 -7
20 -50 0 -49 1 -50 30 -50 29 0 30 1 30 50 0 47 2 50 25 50 23 0 25 -3 25 -50
0 -49 1 -50 30 -50 l31 0 -3 78 c-3 77 -3 77 -32 80 -19 2 -36 -4 -52 -19
l-24 -22 0 21 c0 17 -6 22 -27 22 -15 0 -37 -10 -50 -22 l-23 -21 0 21 c0 18
-6 22 -30 22 l-30 0 0 -80z"/>
<path d="M940 1850 l0 -80 37 0 c20 0 45 7 55 17 17 15 18 15 18 -5 0 -17 -6
-22 -26 -22 -17 0 -28 -6 -31 -20 -3 -11 -12 -20 -19 -20 -11 0 -14 -32 -14
-170 l0 -170 95 0 95 0 0 40 0 40 -45 0 -45 0 0 128 c0 124 1 129 25 152 23
21 25 31 25 107 l0 83 -30 0 c-30 0 -30 0 -30 -56 0 -54 0 -55 -27 -52 -26 3
-28 7 -31 56 -3 48 -5 52 -28 52 -23 0 -24 -2 -24 -80z"/>
<path d="M1200 1850 l0 -80 30 0 c29 0 30 1 30 50 0 43 3 50 19 50 12 0 21 -8
23 -21 l3 -21 28 22 c38 30 35 74 -6 78 -16 2 -35 -3 -44 -10 -13 -10 -17 -10
-20 0 -3 6 -18 12 -34 12 l-29 0 0 -80z"/>
<path d="M1407 1899 c-34 -28 -37 -35 -37 -80 l0 -49 38 0 c21 0 48 7 60 16
20 14 22 14 22 0 0 -10 9 -16 25 -16 25 0 25 1 25 80 l0 80 -48 0 c-38 0 -55
-6 -85 -31z m83 -54 c0 -21 -5 -25 -30 -25 -25 0 -30 4 -30 25 0 21 5 25 30
25 25 0 30 -4 30 -25z"/>
<path d="M1567 1923 c-4 -3 -7 -39 -7 -80 l0 -73 30 0 c29 0 30 1 30 50 0 49
1 50 30 50 29 0 30 -1 30 -50 0 -49 1 -50 30 -50 l31 0 -3 78 -3 77 -34 3
c-24 3 -40 -3 -57 -19 l-24 -22 0 21 c0 16 -6 22 -23 22 -13 0 -27 -3 -30 -7z"/>
<path d="M1947 1923 c-4 -3 -7 -25 -7 -48 0 -33 6 -47 33 -73 29 -28 39 -32
90 -32 l57 0 0 49 c0 43 -4 52 -35 80 -29 25 -44 31 -84 31 -26 0 -51 -3 -54
-7z m113 -78 c0 -21 -5 -25 -30 -25 -25 0 -30 4 -30 25 0 21 5 25 30 25 25 0
30 -4 30 -25z"/>
<path d="M2140 1850 c0 -79 0 -80 25 -80 23 0 25 3 25 50 0 47 2 50 25 50 23
0 25 -3 25 -50 0 -49 1 -50 30 -50 29 0 30 1 30 50 0 43 3 50 20 50 17 0 20
-7 20 -50 0 -49 1 -50 30 -50 l30 0 0 80 0 80 -28 0 c-16 0 -37 -9 -48 -21
l-18 -20 -8 20 c-9 25 -59 29 -78 6 -7 -8 -16 -15 -21 -15 -5 0 -9 7 -9 15 0
9 -9 15 -25 15 -25 0 -25 -1 -25 -80z"/>
<path d="M2532 1897 c-27 -28 -32 -41 -32 -80 l0 -47 75 0 c73 0 75 1 75 25 0
23 -4 25 -45 25 -41 0 -45 2 -45 25 0 23 4 25 45 25 43 0 45 1 45 30 0 29 -2
30 -43 30 -36 0 -49 -6 -75 -33z"/>
<path d="M2000 1695 l0 -45 43 0 42 -1 -42 -40 -43 -40 0 -94 0 -95 45 0 45 0
0 180 0 180 -45 0 -45 0 0 -45z"/>
<path d="M2167 1662 l-67 -68 70 -69 c38 -38 70 -73 70 -77 0 -4 -21 -27 -46
-51 l-47 -44 36 -27 37 -28 47 40 c27 22 61 54 78 71 l29 31 -74 76 -75 75 49
43 48 42 -32 27 c-17 15 -37 27 -44 27 -6 0 -42 -30 -79 -68z"/>
<path d="M1790 1550 l0 -170 95 0 95 0 0 40 0 40 -50 0 -50 0 0 130 0 130 -45
0 -45 0 0 -170z"/>
<path d="M683 1600 l-33 -30 0 -140 0 -141 48 3 47 3 5 68 5 69 24 -26 c21
-23 33 -26 88 -26 l63 0 0 125 0 125 -107 0 c-105 -1 -109 -1 -140 -30z m152
-95 c0 -40 0 -40 -42 -43 l-43 -3 0 46 0 46 43 -3 c42 -3 42 -3 42 -43z"/>
<path d="M1222 1584 l-52 -46 0 -79 0 -79 62 0 c54 0 66 4 90 27 l28 27 0 -27
c0 -26 2 -27 50 -27 l50 0 0 125 0 125 -88 0 -87 0 -53 -46z m128 -80 l0 -45
-42 3 c-39 3 -43 6 -46 31 -6 46 4 57 48 57 l40 0 0 -46z"/>
<path d="M1480 1505 l0 -125 62 0 c54 0 66 4 90 27 l28 27 0 -37 c0 -35 -1
-36 -42 -39 -43 -3 -43 -3 -46 -45 l-3 -43 42 0 c35 0 50 7 95 46 l54 46 0
134 0 134 -50 0 -50 0 0 -85 0 -85 -45 0 -45 0 0 85 0 85 -45 0 -45 0 0 -125z"/>
<path d="M2370 1590 l0 -40 45 0 45 0 0 -85 0 -85 50 0 50 0 0 85 0 85 45 0
45 0 0 40 0 40 -140 0 -140 0 0 -40z"/>
<path d="M2770 1126 c0 -2 8 -10 18 -17 15 -13 16 -12 3 4 -13 16 -21 21 -21
13z"/>
<path d="M530 1094 c0 -5 -21 -8 -47 -7 -27 2 -41 0 -33 -3 8 -4 21 -13 27
-22 11 -13 10 -20 -4 -36 -9 -12 3 -2 27 21 24 23 41 45 37 49 -4 4 -7 3 -7
-2z m-20 -29 c-7 -8 -14 -15 -15 -15 -2 0 -5 7 -9 15 -4 10 1 15 16 15 17 0
18 -2 8 -15z"/>
<path d="M2804 1081 c7 -11 46 -35 46 -28 0 3 -12 12 -26 22 -15 9 -23 12 -20
6z"/>
<path d="M558 954 c-43 -27 -44 -32 -22 -60 14 -18 15 -18 3 5 -9 19 -8 25 3
32 19 11 65 48 58 48 -3 0 -22 -11 -42 -25z"/>
<path d="M2687 973 c-4 -3 -7 -10 -7 -14 0 -10 71 -59 85 -59 5 0 -1 7 -13 16
-12 8 -20 19 -18 23 3 4 -5 7 -17 7 -15 -1 -22 5 -21 17 2 19 1 20 -9 10z"/>
<path d="M2620 865 c0 -8 37 -41 63 -56 30 -17 19 -2 -23 31 -22 17 -40 29
-40 25z"/>
<path d="M643 830 c-18 -16 -33 -33 -33 -36 0 -4 9 1 20 11 17 15 22 16 37 4
16 -13 17 -12 5 3 -8 9 -11 22 -7 28 8 13 35 13 35 0 0 -5 5 -10 11 -10 8 0 8
5 -1 15 -18 21 -31 18 -67 -15z"/>
<path d="M2524 768 c-16 -18 -21 -26 -11 -19 16 13 22 10 55 -20 l37 -34 -34
37 c-29 31 -32 40 -21 53 23 28 4 15 -26 -17z"/>
<path d="M620 776 c0 -2 8 -10 18 -17 15 -13 16 -12 3 4 -13 16 -21 21 -21 13z"/>
<path d="M758 714 c-27 -13 -48 -27 -48 -30 0 -2 9 0 19 5 25 14 45 -9 36 -41
-3 -14 2 -10 14 12 11 19 20 40 20 45 0 6 -4 2 -10 -8 -6 -9 -14 -15 -20 -12
-16 11 -9 24 16 31 14 3 25 10 25 15 0 11 3 12 -52 -17z"/>
<path d="M2405 659 c-18 -18 -18 -23 -5 -46 31 -55 81 -56 88 -2 6 51 -51 84
-83 48z m53 -5 c33 -22 27 -69 -8 -69 -33 0 -60 46 -41 69 17 20 21 20 49 0z"/>
<path d="M902 648 c4 -9 -3 -30 -18 -49 -13 -18 -24 -35 -24 -38 0 -3 7 3 16
14 8 11 23 30 34 42 17 20 17 23 2 35 -13 11 -15 11 -10 -4z"/>
<path d="M2262 567 c-8 -9 -4 -24 14 -55 24 -40 46 -61 25 -24 -7 13 -5 22 10
38 12 12 17 28 13 37 -7 20 -47 22 -62 4z m54 -8 c3 -6 -1 -18 -10 -27 -16
-16 -18 -16 -32 2 -11 16 -11 22 -1 28 17 11 35 10 43 -3z"/>
<path d="M996 538 c-21 -29 -20 -52 2 -69 14 -11 15 -11 5 1 -19 20 -16 47 7
70 11 11 16 20 11 20 -6 0 -17 -10 -25 -22z"/>
<path d="M1053 549 c9 -5 17 -18 18 -27 0 -11 2 -12 6 -4 6 15 -14 42 -31 42
-6 0 -3 -5 7 -11z"/>
<path d="M2127 503 c-4 -3 -7 -14 -7 -24 0 -18 19 -29 52 -29 28 0 19 -32 -12
-42 -23 -6 -23 -7 5 -5 25 2 31 7 33 29 3 24 -1 27 -30 30 -40 4 -52 34 -16
41 21 4 21 4 2 6 -11 0 -24 -2 -27 -6z"/>
<path d="M1053 487 c-4 -8 -15 -17 -23 -20 -13 -5 -12 -6 1 -6 18 -1 45 26 36
35 -3 3 -9 -1 -14 -9z"/>
<path d="M1170 489 c0 -5 5 -7 10 -4 6 3 10 8 10 11 0 2 -4 4 -10 4 -5 0 -10
-5 -10 -11z"/>
<path d="M1209 478 c14 -19 7 -38 -15 -38 -16 0 -17 -16 -3 -45 8 -17 8 -15 4
8 -4 19 -1 27 9 27 22 0 29 32 9 49 -16 15 -16 15 -4 -1z"/>
<path d="M1151 439 c-14 -42 -7 -49 9 -9 7 17 10 33 8 36 -3 3 -11 -9 -17 -27z"/>
<path d="M1321 434 c0 -11 3 -14 6 -6 3 7 2 16 -1 19 -3 4 -6 -2 -5 -13z"/>
<path d="M1862 418 c-28 -28 -6 -98 31 -98 45 0 61 45 31 88 -17 24 -43 29
-62 10z m58 -19 c25 -45 -9 -89 -45 -59 -15 13 -20 61 -8 73 13 14 43 6 53
-14z"/>
<path d="M1431 381 l-20 -39 22 6 c12 3 16 7 9 10 -9 3 -8 11 3 33 9 16 13 29
10 29 -2 0 -14 -18 -24 -39z"/>
<path d="M1306 384 c-4 -14 -5 -28 -3 -31 3 -2 8 8 11 23 4 14 5 28 3 31 -3 2
-8 -8 -11 -23z"/>
<path d="M1684 395 c-3 -8 -4 -20 -1 -27 3 -7 6 -3 6 9 1 12 7 24 14 26 9 4 9
6 -1 6 -7 1 -15 -6 -18 -14z"/>
<path d="M1461 374 c0 -16 4 -38 9 -49 6 -13 7 -5 3 25 -7 53 -13 66 -12 24z"/>
<path d="M1738 388 c21 -21 15 -68 -10 -78 -14 -5 -17 -9 -7 -9 8 -1 20 4 27
11 21 21 12 88 -11 88 -7 0 -7 -4 1 -12z"/>
<path d="M1692 325 c0 -16 2 -22 5 -12 2 9 2 23 0 30 -3 6 -5 -1 -5 -18z"/>
<path d="M1338 33 c7 -3 16 -2 19 1 4 3 -2 6 -13 5 -11 0 -14 -3 -6 -6z"/>
<path d="M1478 13 c7 -3 16 -2 19 1 4 3 -2 6 -13 5 -11 0 -14 -3 -6 -6z"/>
</g>
</svg>
